<svg width="46" height="46" viewBox="0 0 46 46" fill="none" xmlns="http://www.w3.org/2000/svg">
<path d="M23.1515 8.86768C15.2734 8.86768 8.86816 15.2814 8.86816 23.1584C8.86816 31.0354 15.2787 37.4417 23.1515 37.4417C25.0286 37.4452 26.8879 37.0763 28.6215 36.3564C30.3552 35.6365 31.9288 34.5799 33.2514 33.2477C34.5828 31.9259 35.6388 30.353 36.3582 28.6203C37.0775 26.8875 37.446 25.0292 37.4422 23.1531C37.4422 15.2761 31.0316 8.86979 23.1589 8.86979L23.1515 8.86768Z" fill="#E7DF59"/>
<path d="M22.9979 45.9541C21.3636 45.9524 19.7337 45.7844 18.1333 45.4528C13.5985 44.5177 9.484 42.189 6.22993 38.7204C2.97585 35.2518 0.908201 30.9891 0.247582 26.388C0.227971 26.2458 0.215716 26.1 0.202233 25.9443C0.18724 25.5613 0.119178 25.1823 0 24.818V21.1852C0.0676773 21.0708 0.100878 20.9393 0.0956035 20.8065V20.8003C0.123793 20.5981 0.150755 20.3959 0.177719 20.1875C0.229196 19.8002 0.281899 19.4006 0.346858 19.0133C1.15696 14.2572 3.46556 9.88435 6.9359 6.53266C10.3795 3.14622 14.8126 0.945137 19.5918 0.248805C19.734 0.227969 19.8811 0.216939 20.0368 0.203457C20.4167 0.188996 20.7927 0.120489 21.1533 0H24.6108C24.7139 0.0599005 24.8312 0.0908157 24.9503 0.0894711H24.9626C26.0776 0.177776 27.184 0.352755 28.2718 0.61282C31.3533 1.32691 34.2507 2.67976 36.7765 4.58389C39.2183 6.41999 41.2699 8.72408 42.8116 11.3617C46.0338 16.8476 46.8452 23.2075 45.1023 29.2695C42.2343 39.2486 33.3521 45.9541 23.0004 45.9541H22.9979ZM22.982 1.95367C11.385 1.95367 1.95122 11.3911 1.95367 22.9893C1.95612 34.5875 11.3911 44.0201 22.9844 44.0201C25.7478 44.0246 28.4847 43.4813 31.0368 42.4214C33.5889 41.3615 35.9055 39.8062 37.8526 37.8453C39.8122 35.8991 41.3662 33.5835 42.4246 31.0326C43.4831 28.4817 44.0249 25.7462 44.0188 22.9844C44.0188 11.3886 34.5814 1.95489 22.9893 1.95489L22.982 1.95367Z" fill="black"/>
<path d="M22.978 37.1738C22.7192 37.17 22.4725 37.0639 22.2916 36.8789C22.1107 36.6938 22.0102 36.4448 22.0122 36.186C22 35.7215 21.9926 35.3047 22.0122 34.8954C22.0367 34.4407 21.8161 34.1392 21.3553 33.9994C18.9873 33.2775 17.5558 31.7406 16.9871 29.2991C16.9041 28.9345 16.865 28.5613 16.8707 28.1875C16.8707 27.5955 17.2788 27.1591 17.8291 27.1518H17.8463C18.3917 27.1518 18.8023 27.5722 18.8268 28.1531C18.8807 29.6766 19.5401 30.8495 20.7878 31.6474C21.442 32.0661 22.2025 32.2885 22.9792 32.2884C23.9126 32.2838 24.818 31.969 25.5531 31.3937C26.226 30.8655 26.7194 30.1426 26.9662 29.3235C27.213 28.5044 27.201 27.6292 26.9319 26.8172C26.6725 25.9987 26.1609 25.2832 25.4704 24.773C24.7798 24.2627 23.9457 23.9838 23.0871 23.9762C20.289 23.9762 17.8242 22.1242 17.0913 19.4744C16.6648 17.923 16.872 16.2658 17.6673 14.8672C18.0518 14.1711 18.5714 13.5588 19.1957 13.0661C19.8199 12.5734 20.5362 12.2103 21.3026 11.998C21.8112 11.857 22.0514 11.5335 22.0159 11.0334C21.9926 10.7172 22 10.3973 22.0061 10.0529V9.83351C22.0159 9.24153 22.4216 8.80888 22.9719 8.8052C23.5222 8.80152 23.9524 9.24643 23.9585 9.85435C23.9585 9.98671 23.9585 10.1191 23.9585 10.2527V10.6375C23.9585 10.6535 23.9585 10.6694 23.9585 10.6866C23.9352 10.9476 23.9046 11.2724 24.0554 11.5666C24.249 11.949 24.6486 12.025 24.9133 12.0752C24.9868 12.087 25.0593 12.1042 25.1302 12.1267C27.459 13.0104 29.0523 15.2447 29.0964 17.6862C29.1087 18.3505 28.7287 18.8089 28.1563 18.8273H28.1208C27.5619 18.8273 27.1685 18.3958 27.1403 17.7536C27.0496 15.4396 25.2503 13.6943 22.956 13.6943C22.8996 13.6943 22.8432 13.6943 22.7868 13.6943C22.2507 13.7154 21.7242 13.8431 21.238 14.0697C20.7517 14.2963 20.3153 14.6174 19.9544 15.0143C19.5757 15.4216 19.2817 15.9 19.0892 16.4217C18.8967 16.9435 18.8096 17.4982 18.8329 18.0539C18.9211 20.26 20.7265 21.96 23.0356 22.0066C24.2739 22.0216 25.4788 22.4104 26.4925 23.1218C27.5061 23.8332 28.2813 24.8342 28.7165 25.9936C29.007 26.7789 29.1328 27.6156 29.086 28.4517C29.0392 29.2878 28.8208 30.1052 28.4444 30.8532C28.0715 31.5982 27.5494 32.2586 26.9105 32.7933C26.2717 33.328 25.5297 33.7256 24.7307 33.9614C24.1583 34.1269 23.9132 34.4762 23.9573 35.0645C23.9776 35.4426 23.9776 35.8214 23.9573 36.1995C23.9547 36.4578 23.8503 36.7047 23.6667 36.8865C23.4831 37.0682 23.2351 37.1702 22.9768 37.1702L22.978 37.1738Z" fill="black"/>
</svg>
