<svg width="24" height="24" viewBox="0 0 24 24" fill="none" xmlns="http://www.w3.org/2000/svg">
<g id="iconamoon:phone-light">
<path id="Vector" d="M3.11146 7.56847C3.93424 10.7786 5.60468 13.7087 7.948 16.052C10.2913 18.3953 13.2214 20.0658 16.4315 20.8885C18.9015 21.5173 21 19.3934 21 16.8438V15.6902C21 15.0534 20.482 14.5423 19.8487 14.4788C18.7982 14.3753 17.7671 14.1272 16.7846 13.7417L15.031 15.4952C12.1758 14.1266 9.87342 11.8242 8.50478 8.969L10.2583 7.21545C9.87237 6.23293 9.62391 5.20183 9.52 4.15135C9.4577 3.51684 8.94663 3 8.30982 3H7.15616C4.60659 3 2.48271 5.09849 3.11146 7.56847Z" stroke="black" stroke-width="1.5" stroke-linecap="round" stroke-linejoin="round"/>
</g>
</svg>
