<svg width="20" height="20" viewBox="0 0 20 20" fill="none" xmlns="http://www.w3.org/2000/svg">
<path d="M10.95 19.9V17.9C11.65 17.8 12.3293 17.6083 12.988 17.325C13.6467 17.0417 14.2673 16.6833 14.85 16.25L16.3 17.7C15.5167 18.3167 14.675 18.8127 13.775 19.188C12.875 19.5633 11.9333 19.8007 10.95 19.9ZM17.7 16.25L16.3 14.85C16.7333 14.3 17.0833 13.696 17.35 13.038C17.6167 12.38 17.8 11.684 17.9 10.95H19.95C19.8167 11.9833 19.5627 12.946 19.188 13.838C18.8133 14.73 18.3173 15.534 17.7 16.25ZM17.9 8.95C17.8 8.2 17.6167 7.496 17.35 6.838C17.0833 6.18 16.7333 5.584 16.3 5.05L17.7 3.65C18.3333 4.38333 18.8457 5.2 19.237 6.1C19.6283 7 19.866 7.95 19.95 8.95H17.9ZM8.95 19.9C6.4 19.6 4.271 18.5043 2.563 16.613C0.855 14.7217 0.000666667 12.5007 0 9.95C0 7.36667 0.854333 5.13333 2.563 3.25C4.27167 1.36667 6.40067 0.283333 8.95 0V2C6.95 2.28333 5.29167 3.175 3.975 4.675C2.65833 6.175 2 7.93333 2 9.95C2 11.95 2.65833 13.7 3.975 15.2C5.29167 16.7 6.95 17.6 8.95 17.9V19.9ZM14.9 3.65C14.3 3.2 13.6667 2.83333 13 2.55C12.3333 2.26667 11.65 2.08333 10.95 2V0C11.9333 0.0833333 12.875 0.312667 13.775 0.688C14.675 1.06333 15.5167 1.56733 16.3 2.2L14.9 3.65ZM9.975 14.95C8.625 13.8 7.62067 12.7373 6.962 11.762C6.30333 10.7867 5.97433 9.88267 5.975 9.05C5.975 7.8 6.37933 6.80433 7.188 6.063C7.99667 5.32167 8.92567 4.95067 9.975 4.95C11.025 4.95 11.9543 5.321 12.763 6.063C13.5717 6.805 13.9757 7.80067 13.975 9.05C13.975 9.88333 13.6457 10.7877 12.987 11.763C12.3283 12.7383 11.3243 13.8007 9.975 14.95ZM9.975 9.95C10.275 9.95 10.5293 9.84567 10.738 9.637C10.9467 9.42833 11.0507 9.17433 11.05 8.875C11.05 8.59167 10.946 8.34167 10.738 8.125C10.53 7.90833 10.2757 7.8 9.975 7.8C9.675 7.8 9.42067 7.90833 9.212 8.125C9.00333 8.34167 8.89933 8.59167 8.9 8.875C8.9 9.175 9.00433 9.42933 9.213 9.638C9.42167 9.84667 9.67567 9.95067 9.975 9.95Z" fill="white"/>
</svg>
