<?xml version="1.0" encoding="utf-8"?>
<!-- Generator: Adobe Illustrator 27.1.1, SVG Export Plug-In . SVG Version: 6.00 Build 0)  -->
<svg version="1.1" id="Layer_1" xmlns="http://www.w3.org/2000/svg" xmlns:xlink="http://www.w3.org/1999/xlink" x="0px" y="0px"
	 viewBox="0 0 256 256.1" style="enable-background:new 0 0 256 256.1;" xml:space="preserve">
<g>
	<path d="M256,27.3c0-3.6-0.8-7.1-1.8-10.5c-3.9-12.5-13-16.6-25.5-16.6C184-0.1,139.4,0.1,94.8,0C90.4,0,86,0.1,81.6,1
		C73,2.8,62.5,13.7,64.2,22c0,22.6,0,45.3,0,67.9c2,5.9,7.9,8.2,12.5,4.8c2.2-1.7,1.9-4.7,3.5-6.7c1.1-1.1,0.8-2.5,0.8-3.8
		c0-19.5,0-38.9,0-58.4c0-1.3,0.3-2.7-0.8-3.8c1.3-5.5,5.6-6,10.1-6c45.6,0,91.1,0.1,136.7-0.1c6.3,0,11.3,1.3,13.1,8.1
		c-0.1,1.8-0.2,3.7-0.2,5.5c0,63.8,0,127.6,0,191.4c0,3.7,0.1,7.3,0.2,11c-1.9,3.7-2.7,8.1-8.7,8.1c-48.1-0.1-96.2-0.1-144.3-0.1
		c-4,0-6.2-2.2-7-6c1.1-1.1,0.8-2.5,0.8-3.8c0-19.5,0-38.9,0-58.4c0-1.3,0.2-2.7-0.8-3.8c-0.4-0.9-0.9-1.7-1.1-2.6
		c-1-4.5-4.4-4.4-7.9-4.4c-3.7,0-6.4,0.9-6.9,5c0,22.6,0,45.3,0,67.9c-2.2,8.7,12.1,22.2,20.9,22.2c49.6-0.3,99.2-0.1,148.9-0.2
		c1.4,0,2.8-0.1,4.3-0.6c12.5-4.4,17.6-13.7,17.6-26.7C256.1,161.5,256,94.4,256,27.3z"/>
	<path d="M27,136c9.5,9.4,18.2,17.9,26.7,26.5c3.5,3.6,3.5,7.3,0.1,10.9c-3.9,4.1-8.4,3.7-13.5-1.4c-11.7-11.6-23.4-23.2-35-35
		c-7-7.1-7.3-10.7,0.1-18.3c10.8-11.1,21.9-21.9,32.8-32.8c1.5-1.5,3.2-2.8,5-3.9c4.7-3.2,8.7-1.5,11.2,1.3
		c2.4,2.7,1.7,7.8-1.4,10.9c-8.4,8.3-16.8,16.6-26.1,25.8c3.1,0,4.7,0,6.3,0c43.6,0,87.3,0,130.9,0c1.5,0,3-0.2,4.5,0.1
		c5.4,1,7.6,4.1,7,9.8c-0.4,3.6-3.9,6.2-8.6,6.2c-44.6,0-89.3,0-133.9,0C31.5,136,29.8,136,27,136z"/>
</g>
</svg>
