<?xml version="1.0" encoding="utf-8"?>
<!-- Generator: Adobe Illustrator 27.1.1, SVG Export Plug-In . SVG Version: 6.00 Build 0)  -->
<svg version="1.1" id="Layer_1" xmlns="http://www.w3.org/2000/svg" xmlns:xlink="http://www.w3.org/1999/xlink" x="0px" y="0px"
	 viewBox="0 0 213.9 255.3" style="enable-background:new 0 0 213.9 255.3;" xml:space="preserve">
<path d="M213.2,203.2c-0.4-3.4-0.6-6.8-0.9-10.2c-1.1-11.5-3-22.7-7.3-33.5c-6.7-17-16.8-30.5-36-34.8c-8.8-2-16.7-2-24.3,4.1
	c-4.5,3.6-9.8,6.5-15.3,8.9c-8.3,3.6-17,6.2-25.8,5.3c-12.2-1.2-23.7-5.4-33.6-13.3c-8.1-6.5-17.1-7.5-27.3-4.7
	c-17.9,5-27.9,17.4-34.3,33.5C4.1,169,2.1,179.9,1,191.1c-1,10.9-1.8,21.7,0.3,32.4c3.4,17.9,21.5,31.8,39.2,31.8
	c43.4,0,86.9,0,130.3,0c18.6,0,34.9-11.6,40.3-29.2c1.8-5.8,1.2-11.9,2.8-17.7C212.4,206.8,213.2,204.9,213.2,203.2z M198.2,214.4
	c-1.4,16-12.2,25.9-27.7,25.9c-42.6,0-85.2-0.2-127.8,0.1c-12,0.1-23.4-7.8-27-20.2c-0.2-0.8-0.3-1.6-0.4-2.4
	c-0.6-18.2,0.3-36.2,6.9-53.5c5.2-13.7,13.9-23.4,29.1-25.9c4.3-0.7,7.2,1.9,10.1,3.9c10.1,7.2,21.1,12.4,33.2,14.8
	c12.7,2.5,25.1,0.3,37.2-4c7.3-2.6,14-6.6,20.1-11.2c5.7-4.4,11.2-3.5,17.3-1.5c12.1,3.9,17.6,13.7,21.8,24.4
	c5.5,14.2,7.2,29.3,7.2,44.5C199.6,210.9,199.5,212.6,198.2,214.4z M101.1,122.4c2.4,0,4.7,0,7.1,0c13.7,0.1,25.7-4.9,35.8-13.7
	c15.1-13,22.8-29.5,22.2-49.9c-0.5-16-6.1-29.5-17-40.6C136.1,4.8,119.8-1.1,100.6,0.2C89.4,0.9,79,3.6,70.3,10
	c-21.4,15.5-30.6,36.7-26,63C48.7,98.4,74.8,123.2,101.1,122.4z M58.1,59.9c0.7-25,19.6-44.8,45.8-45.3c25-0.5,48,18.5,47.2,46.4
	c1.2,25.7-20.8,47.4-47.5,47.1C80.1,107.9,57.4,86.7,58.1,59.9z"/>
</svg>
