<?xml version="1.0" encoding="utf-8"?>
<!-- Generator: Adobe Illustrator 27.1.1, SVG Export Plug-In . SVG Version: 6.00 Build 0)  -->
<svg version="1.1" id="Layer_1" xmlns="http://www.w3.org/2000/svg" xmlns:xlink="http://www.w3.org/1999/xlink" x="0px" y="0px"
	 viewBox="0 0 251.8 252" style="enable-background:new 0 0 251.8 252;" xml:space="preserve">
<path d="M150.4,252c-0.4,0-0.7,0-1.1,0c-0.4,0-0.8,0-1.2,0l-70.8,0c-15.6,0-31.1,0-46.7,0c-9.8,0-18.2-3.3-23.7-9.3
	c-5.3-5.8-7.7-13.8-6.9-23.1c0.7-8.3,4-16.4,7.2-24c15.3-35.8,40.9-59.8,78.3-73.3l3.4-1.2l-2.8-2.2c-15.5-12.2-24.3-28-26.2-46.9
	c-1.5-15.7,2.4-30.3,11.7-43.5C84.3,10.6,104.5,0,125.9,0c7.1,0,14.1,1.2,20.8,3.5c28.4,9.9,46.5,36.1,45,65.4l0,0.2l0.1,0.7
	c0.2,2,0.3,3.2-0.4,4.4l-0.2,0.4l-0.1,0.4c-2.2,17.2-10.5,31.5-25.4,43.8l-2.6,2.1l3.1,1.3c1.6,0.6,3.1,1.3,4.6,1.9
	c3.2,1.3,6.3,2.6,9.3,3.9c2.4,1.1,4.1,2.9,4.9,5c0.7,1.9,0.6,4-0.4,6c-1.3,2.8-3.9,4.5-6.9,4.5c-1.3,0-2.7-0.3-4.1-0.9
	c-12.3-5.4-22.9-8.4-33.4-9.6l-0.3,0l-0.3,0.1c-0.7,0.1-1.3,0.2-1.7,0.2c-0.8,0-1.4-0.2-1.9-0.6l-0.5-0.4l-16,0l-0.4,0.2
	c-0.9,0.5-2,0.7-3.3,0.7c-0.9,0-1.8-0.1-2.7-0.2l-0.2,0l-0.2,0c-25.5,3-47.8,14-66.4,32.6c-14.8,14.9-24.7,32.9-29.4,53.6
	c-1.1,5-0.5,9.3,2,12.3c2.4,3,6.2,4.5,11.2,4.6c21.9,0,43.8,0,65.7,0c17.6,0,35.2,0,52.8,0h0.2c1.8,0,3.6,0,5.2,0.4
	c3.6,1,5.8,4.2,5.5,8.2c-0.3,3.7-3.1,6.7-6.8,7.3C151.9,251.9,151.3,252,150.4,252z M125.1,16.1c-26.1,0-48.6,22.3-49.2,48.7
	c-0.5,27.8,21.4,50.7,48.7,51.2c0.3,0,0.6,0,0.9,0c27.7,0,50.3-22,50.3-49.1c0.1-28-21-49.9-49.1-50.8
	C126.1,16.1,125.6,16.1,125.1,16.1z M214.1,245.4l0.2-0.4l0.3-0.3c0.2-0.2,0.3-0.6,0.2-1.6c0-0.2,0-0.5,0-0.7c0-6.3,0-12.7-0.1-19
	l0-6.3l0-0.9l1.2-1.2l0.8,0c1.4,0,2.8,0,4.2,0.1c1.7,0,3.4,0.1,5.1,0.1c1.5,0,2.9,0,4.1-0.1c0.5,0,1.1,0,1.6,0
	c1.3,0,2.6,0.1,3.9,0.1c1.3,0.1,2.5,0.1,3.6,0.1c2.5,0,4.3-0.3,6-0.9l0.1,0l0.1,0c4-0.9,6-3.4,6.3-7.6c0.2-3.6-1.9-6.2-6.5-7.9
	l-0.4-0.2l-0.3-0.3c-0.1-0.1-0.3-0.3-1-0.3c-0.2,0-0.4,0-0.6,0c-0.2,0-0.5,0-0.7,0c-6.3,0-12.7,0-19,0.1l-6.4,0l-0.9,0l-1.2-1.2
	l0-0.8c0-1.4,0-2.8,0.1-4.1c0.1-3,0.1-6.2,0-9.2c-0.1-1.8,0-3.7,0.1-5.4c0.2-3.4,0.3-6.6-0.8-9.7l0-0.1l0-0.1c-0.9-4-3.4-6-7.6-6.3
	c-0.2,0-0.4,0-0.6,0c-3.3,0-5.7,2.1-7.3,6.5l-0.2,0.4l-0.3,0.3c-0.2,0.2-0.3,0.6-0.2,1.6c0,0.2,0,0.5,0,0.7c0,6.5,0,13.1,0.1,19.6
	l0,5.8l0,0.9l-1.2,1.2l-0.8,0c-1.4,0-2.8,0-4.1-0.1c-1.7,0-3.4-0.1-5.1-0.1c-1.5,0-2.9,0-4.1,0.1c-0.5,0-1.1,0-1.6,0
	c-1.3,0-2.6-0.1-3.9-0.1c-1.3-0.1-2.5-0.1-3.6-0.1c-2.5,0-4.3,0.3-6,0.9l-0.1,0l-0.1,0c-4,0.9-6,3.4-6.3,7.6
	c-0.2,3.6,1.9,6.2,6.5,7.9l0.4,0.2l0.3,0.3c0.1,0.1,0.3,0.3,1,0.3c0.2,0,0.4,0,0.6,0c0.2,0,0.5,0,0.7,0c6.4,0,12.7,0,19-0.1l6.3,0
	l0.8,0l1.2,1.2l0,0.9c0,1.4,0,2.8-0.1,4.1c-0.1,3-0.1,6.2,0,9.2c0.1,1.8,0,3.7-0.1,5.4c-0.2,3.4-0.3,6.6,0.8,9.7l0,0.1l0,0.1
	c0.9,4,3.4,6,7.6,6.3c0.2,0,0.4,0,0.6,0C210.1,251.9,212.5,249.8,214.1,245.4z"/>
</svg>
