<svg width="38" height="38" viewBox="0 0 38 38" fill="none" xmlns="http://www.w3.org/2000/svg">
<path d="M18.9977 10C14.0349 10 10 14.0403 10 19.0023C10 23.9644 14.0383 28 18.9977 28C20.1802 28.0022 21.3514 27.7698 22.4435 27.3163C23.5356 26.8628 24.5269 26.1972 25.36 25.358C26.1987 24.5253 26.864 23.5345 27.3171 22.443C27.7703 21.3515 28.0024 20.1809 28 18.999C28 14.0369 23.9617 10.0013 19.0023 10.0013L18.9977 10Z" fill="#E7DF59"/>
<path d="M0.481149 19.1987C0.817348 18.7507 1.30823 18.4439 1.85823 18.3379C2.40823 18.232 2.97798 18.3345 3.45655 18.6255C3.79874 18.8223 3.96984 18.7966 4.23504 18.5263C7.2247 15.5526 10.7442 14.6492 14.7935 15.8161C15.0502 15.8897 15.2589 15.9633 15.5155 15.8041C16.6807 15.0821 17.9263 15.077 19.2061 15.4209C20.3423 15.9417 21.2493 16.8591 21.7572 18.001C22.0464 19.2603 22.0395 20.4854 21.3329 21.6266C21.2843 21.7134 21.2562 21.8101 21.2505 21.9094C21.2449 22.0088 21.2619 22.108 21.3004 22.1998C22.5237 26.2531 21.6203 29.7726 18.6398 32.7634C18.3832 33.02 18.3267 33.1963 18.5081 33.5573C19.1069 34.755 18.8314 35.8825 17.8476 36.5772C16.8963 37.2513 15.7705 37.1606 14.8329 36.235C10.1174 31.5708 5.41277 26.8942 0.718975 22.2049C-0.16047 21.3306 -0.223776 20.0919 0.481149 19.1987ZM20.1574 17.1695C19.2506 16.1292 17.8835 15.8384 16.3026 16.3996C18.2531 17.4997 19.6938 18.8993 20.7512 20.8344C21.3705 19.3561 21.0523 18.1944 20.1506 17.1609L20.1574 17.1695ZM20.9342 25.4541C20.9342 21.5753 18.6398 18.2252 14.9988 16.8085C11.5461 15.4654 7.41576 16.4184 4.86811 19.1046C4.47287 19.5204 4.69701 19.6949 4.97076 19.9687C9.07028 24.0408 13.1647 28.1169 17.2539 32.1971C17.5396 32.4828 17.6851 32.4931 17.9862 32.2159C18.9164 31.3508 19.6577 30.3029 20.1639 29.1379C20.67 27.9728 20.9299 26.7158 20.9274 25.4455L20.9342 25.4541ZM1.46325 21.7293C6.11142 26.3489 10.7607 30.9686 15.4112 35.5882C16.1041 36.2726 16.934 36.3017 17.5379 35.7165C18.1419 35.1314 18.1522 34.3289 17.437 33.6155C12.7991 28.9878 8.15547 24.3653 3.50616 19.7479C2.99287 19.2347 2.41456 19.0225 1.72674 19.3219C1.4873 19.4202 1.28234 19.5873 1.1377 19.8019C0.993065 20.0166 0.915235 20.2693 0.914027 20.5282C0.91716 20.7536 0.966971 20.976 1.06032 21.1812C1.15367 21.3865 1.28853 21.5702 1.45641 21.7207L1.46325 21.7293Z" fill="#141414"/>
<path d="M33.0683 8.5116C33.4447 8.19678 33.2787 8.03937 33.0375 7.79984C31.821 6.60215 30.6028 5.40446 29.4068 4.17598C29.1005 3.86116 28.9226 3.83378 28.63 4.1948C27.653 5.38222 26.6401 6.54055 25.6495 7.71771C23.7263 9.99902 21.8066 12.2883 19.8903 14.5856C19.5618 14.7173 19.4129 15.3504 18.9133 14.9842C18.5506 14.719 18.785 14.435 18.9954 14.1869C22.6244 9.90947 26.2141 5.61149 29.9012 1.39221C31.8364 -0.832071 35.3559 -0.291398 36.7349 2.30416C37.6417 4.01514 37.2636 6.06832 35.7083 7.4046C33.484 9.3209 31.2341 11.191 28.9927 13.0765C27.0114 14.743 25.0284 16.4072 23.0436 18.0691C22.8229 18.2539 22.6108 18.4678 22.2925 18.3275C21.9743 18.1872 22.0821 17.91 22.1214 17.6619C25.7681 14.6095 29.417 11.5594 33.0683 8.5116ZM34.2814 7.47646C35.5629 6.93579 36.5399 5.05371 36.2593 3.61135C35.9513 2.02698 34.5876 0.907998 32.5892 0.916553C31.4908 0.896021 30.5822 1.81482 29.7558 2.88076C29.5385 3.16136 29.7558 3.29311 29.9012 3.44368C31.1925 4.73034 32.4871 6.01357 33.7852 7.29339C33.9152 7.42 34.0076 7.59109 34.2814 7.47646Z" fill="#141414"/>
<path d="M29.5829 17.1038C29.5754 16.9168 29.6251 16.732 29.7254 16.5739C29.8256 16.4159 29.9717 16.2922 30.1441 16.2192C31.0817 15.7521 31.6361 14.9993 32.0262 14.0412C32.4351 13.0505 33.3316 12.9786 33.8774 13.8974C34.3552 14.7323 35.1055 15.3775 36.0025 15.7248C37.0667 16.1594 37.1403 17.0234 36.1548 17.6069C35.3137 18.0746 34.6725 18.8333 34.3514 19.7404C33.9715 20.7551 33.0818 20.8235 32.5087 19.8961C31.9646 19.0167 31.2956 18.3563 30.2981 18.0432C29.8549 17.8994 29.5795 17.6017 29.5829 17.1038ZM33.4103 19.8038C33.9134 18.3289 34.5755 17.2766 36.1565 16.7052C34.6166 16.1919 33.5729 15.4989 32.986 14.1695C32.7952 14.8119 32.4704 15.4067 32.033 15.9145C31.5957 16.4224 31.0557 16.8318 30.4486 17.1158C31.8072 17.5247 32.7602 18.3426 33.4103 19.8038Z" fill="#141414"/>
<path d="M24.2127 23.8338C25.0562 23.4317 25.5199 22.7473 25.8826 21.9089C26.2693 21.0158 27.0478 20.961 27.556 21.7909C27.984 22.5238 28.6473 23.0906 29.438 23.3992C30.3671 23.7773 30.4304 24.5969 29.5612 25.1102C28.8467 25.5128 28.2976 26.1553 28.0111 26.9238C27.6483 27.8494 26.7963 27.9316 26.2881 27.0949C25.8227 26.3267 25.241 25.7877 24.3889 25.5157C24.1945 25.4619 24.0217 25.3487 23.8947 25.1919C23.7677 25.0352 23.6929 24.8427 23.6806 24.6413C23.6883 24.4713 23.7418 24.3064 23.8354 24.1643C23.9291 24.0221 24.0594 23.9079 24.2127 23.8338ZM27.1025 26.8981C27.52 25.6371 28.0898 24.7662 29.1643 24.2649C28.0675 23.8817 27.2822 23.2862 26.7535 22.2118C26.5745 22.7576 26.2782 23.2577 25.8854 23.6768C25.4926 24.096 25.0127 24.424 24.4796 24.6379C25.744 25.0246 26.5824 25.6423 27.1025 26.8981Z" fill="#141414"/>
<path d="M14.082 9.78758C13.3485 10.1626 12.7877 10.8061 12.5165 11.5841C12.164 12.4944 11.3085 12.5474 10.7918 11.6902C10.3934 11.0062 9.77084 10.4809 9.02952 10.2033C8.06966 9.82351 7.98582 9.03133 8.84816 8.50263C9.55707 8.09126 10.1059 7.45202 10.4051 6.689C10.7833 5.75651 11.6114 5.69149 12.1161 6.56067C12.4966 7.25813 13.1211 7.79062 13.8699 8.05607C14.3011 8.21177 14.6227 8.45815 14.6005 8.97315C14.6078 9.14564 14.562 9.31623 14.4693 9.46187C14.3766 9.60751 14.2414 9.7212 14.082 9.78758ZM11.2555 6.80363C10.8979 8.00132 10.3196 8.82772 9.25537 9.31364C10.3812 9.67295 11.1101 10.3402 11.6353 11.4934C12.0306 10.3283 12.5901 9.48132 13.8887 8.92696C12.5199 8.61898 11.8253 7.87641 11.2555 6.7985V6.80363Z" fill="#141414"/>
<path d="M33.6292 2.10254C34.0307 2.11813 34.4103 2.29004 34.6868 2.58158C34.9633 2.87311 35.1149 3.26119 35.1092 3.66296C35.0904 4.06416 34.9189 4.44297 34.6297 4.72167C34.3405 5.00038 33.9556 5.15784 33.5539 5.16178C32.76 5.13953 32.0277 4.37472 32.05 3.58938C32.0779 3.18835 32.256 2.81258 32.5487 2.53701C32.8414 2.26144 33.2272 2.1063 33.6292 2.10254ZM33.6292 4.25154C34.0022 4.22587 34.2708 3.99147 34.2418 3.58083C34.2425 3.49498 34.2251 3.40995 34.1906 3.33134C34.1561 3.25272 34.1053 3.18232 34.0416 3.12476C33.9779 3.06721 33.9027 3.02381 33.821 2.99743C33.7393 2.97105 33.653 2.96229 33.5676 2.97172C33.169 2.98883 32.9962 3.27799 32.9311 3.59623C33.003 4.03253 33.234 4.27891 33.6224 4.25154H33.6292Z" fill="#141414"/>
</svg>
